<mxfile host="app.diagrams.net" modified="2023-05-16T07:02:18.729Z" agent="Mozilla/5.0 (Windows NT 10.0; Win64; x64) AppleWebKit/537.36 (KHTML, like Gecko) Chrome/113.0.0.0 Safari/537.36" version="21.3.2" etag="xy8wfBvLY2jRPLDdLXUj" type="github">
  <diagram name="Page-1" id="pfj0_VtUvXlCa_5Pd3qM">
    <mxGraphModel>
      <root>
        <mxCell id="0" />
        <mxCell id="1" parent="0" />
      </root>
    </mxGraphModel>
  </diagram>
</mxfile>
